<mxfile host="www.draw.io" modified="2019-12-06T01:09:35.500Z" agent="Mozilla/5.0 (Windows NT 10.0; Win64; x64) AppleWebKit/537.36 (KHTML, like Gecko) Chrome/76.0.3809.132 Safari/537.36" etag="uWnBN-NWiFdfShZ2IqqS" version="12.3.7" type="github" pages="1">
  <diagram id="VGvVmYkRIapkva4rziBD" name="Page-1">
    <mxGraphModel dx="1025" dy="635" grid="1" gridSize="10" guides="1" tooltips="1" connect="1" arrows="1" fold="1" page="1" pageScale="1" pageWidth="827" pageHeight="1169" background="none" math="0" shadow="0">
      <root>
        <mxCell id="0"/>
        <mxCell id="1" parent="0"/>
        <mxCell id="QfNwxjUrtiqKFgsli5KM-1" value="" style="endArrow=none;html=1;" edge="1" parent="1">
          <mxGeometry width="50" height="50" relative="1" as="geometry">
            <mxPoint x="290" y="220" as="sourcePoint"/>
            <mxPoint x="380" y="130" as="targetPoint"/>
          </mxGeometry>
        </mxCell>
        <mxCell id="QfNwxjUrtiqKFgsli5KM-2" value="" style="endArrow=none;html=1;" edge="1" parent="1">
          <mxGeometry width="50" height="50" relative="1" as="geometry">
            <mxPoint x="490" y="210" as="sourcePoint"/>
            <mxPoint x="380" y="130" as="targetPoint"/>
          </mxGeometry>
        </mxCell>
        <mxCell id="QfNwxjUrtiqKFgsli5KM-3" value="" style="verticalLabelPosition=bottom;html=1;verticalAlign=top;align=center;strokeColor=none;fillColor=#00BEF2;shape=mxgraph.azure.computer;pointerEvents=1;" vertex="1" parent="1">
          <mxGeometry x="360" y="140" width="50" height="45" as="geometry"/>
        </mxCell>
        <mxCell id="QfNwxjUrtiqKFgsli5KM-9" value="" style="verticalLabelPosition=bottom;verticalAlign=top;html=1;shape=mxgraph.basic.half_circle;rotation=35;" vertex="1" parent="1">
          <mxGeometry x="425" y="180" width="37" height="15" as="geometry"/>
        </mxCell>
        <mxCell id="QfNwxjUrtiqKFgsli5KM-14" value="" style="endArrow=none;dashed=1;html=1;" edge="1" parent="1">
          <mxGeometry width="50" height="50" relative="1" as="geometry">
            <mxPoint x="400" y="200" as="sourcePoint"/>
            <mxPoint x="430" y="170" as="targetPoint"/>
          </mxGeometry>
        </mxCell>
        <mxCell id="QfNwxjUrtiqKFgsli5KM-15" value="" style="endArrow=none;dashed=1;html=1;" edge="1" parent="1">
          <mxGeometry width="50" height="50" relative="1" as="geometry">
            <mxPoint x="432" y="225" as="sourcePoint"/>
            <mxPoint x="462" y="195" as="targetPoint"/>
          </mxGeometry>
        </mxCell>
        <mxCell id="QfNwxjUrtiqKFgsli5KM-16" value="" style="endArrow=none;dashed=1;html=1;" edge="1" parent="1">
          <mxGeometry width="50" height="50" relative="1" as="geometry">
            <mxPoint x="413" y="185" as="sourcePoint"/>
            <mxPoint x="450" y="210" as="targetPoint"/>
          </mxGeometry>
        </mxCell>
        <mxCell id="QfNwxjUrtiqKFgsli5KM-17" value="长17cm&amp;nbsp; 宽5cm" style="text;html=1;strokeColor=none;fillColor=none;align=center;verticalAlign=middle;whiteSpace=wrap;rounded=0;" vertex="1" parent="1">
          <mxGeometry x="443.5" y="152.5" width="60" height="20" as="geometry"/>
        </mxCell>
      </root>
    </mxGraphModel>
  </diagram>
</mxfile>
